<?xml version="1.0" encoding="UTF-8"?>
<svg version="1.1" xmlns="http://www.w3.org/2000/svg" width="1024" height="1024">
<path d="M0 0 C10.58985904 6.64559229 17.45787396 15.79256651 23.49609375 26.56640625 C23.83988445 27.14317077 24.18367516 27.71993528 24.53788376 28.31417751 C27.53210179 33.68402626 28.10336163 38.14739314 28.13378906 44.23266602 C28.16392593 45.63205162 28.16392593 45.63205162 28.19467163 47.05970764 C28.2561368 50.12571983 28.29038144 53.1913814 28.32421875 56.2578125 C28.36170253 58.40765759 28.40085372 60.5574742 28.44158936 62.70726013 C28.54409896 68.36148846 28.62334245 74.01581432 28.69787598 79.67047119 C28.77749926 85.38147646 28.88025719 91.09206026 28.98046875 96.80273438 C29.56540345 131.05762509 29.56540345 131.05762509 29.49609375 147.56640625 C30.42758743 147.8690741 31.35908112 148.17174194 32.31880188 148.48358154 C37.73369751 150.32898417 42.64597856 153.13087973 47.68359375 155.81640625 C48.77607422 156.37714844 49.86855469 156.93789063 50.99414062 157.515625 C52.56325195 158.35287109 52.56325195 158.35287109 54.1640625 159.20703125 C55.11563232 159.70750977 56.06720215 160.20798828 57.04760742 160.72363281 C60.08425758 163.00906859 61.16690992 165.0306801 62.49609375 168.56640625 C61.94275921 172.64724845 61.36857186 174.76871198 58.30859375 177.56640625 C53.94747733 179.11702542 50.42095247 178.42497021 46.28588867 176.58056641 C43.71851652 175.23332366 41.19951747 173.81996031 38.68359375 172.37890625 C36.71931388 171.28024124 34.7544451 170.18262863 32.7890625 169.0859375 C31.76216309 168.50924316 30.73526367 167.93254883 29.67724609 167.33837891 C24.31684665 164.35251711 18.90466861 161.46378531 13.49609375 158.56640625 C4.54645936 153.75684179 -4.38495345 148.91540353 -13.30102539 144.04394531 C-19.13620852 140.85638827 -24.97560766 137.676777 -30.82104492 134.50805664 C-32.87803225 133.39289623 -34.93420488 132.27623155 -36.98950195 131.15795898 C-41.38486277 128.77120156 -45.78430108 126.40507087 -50.24609375 124.14453125 C-50.94420166 123.78713867 -51.64230957 123.42974609 -52.36157227 123.06152344 C-54.16002582 122.14601242 -55.96638599 121.24607734 -57.7734375 120.34765625 C-61.50217961 117.91517213 -63.03507566 115.61959926 -64.03761292 111.22909546 C-64.53927731 108.27326784 -64.96503748 105.31422179 -65.37109375 102.34375 C-65.70291259 100.0904635 -66.03495093 97.83720932 -66.3671875 95.58398438 C-66.87448554 92.05222138 -67.37666865 88.51981795 -67.87353516 84.98657227 C-68.35924497 81.56186168 -68.86434551 78.14040167 -69.37109375 74.71875 C-69.51086639 73.68080795 -69.65063904 72.64286591 -69.79464722 71.57347107 C-71.72145096 58.68560371 -77.05928943 46.77697321 -86.31640625 37.44140625 C-90.81561871 34.79481068 -94.41315905 34.47005557 -99.50390625 35.56640625 C-102.82831827 37.20231153 -105.63022751 39.24187206 -108.50390625 41.56640625 C-109.32890625 42.19289063 -110.15390625 42.819375 -111.00390625 43.46484375 C-118.29720319 49.59577149 -123.76566492 58.09956125 -129.0534668 65.97021484 C-131.27418262 69.19296655 -132.94383869 70.99470165 -136.50390625 72.56640625 C-136.27807358 73.08702133 -136.05224091 73.60763641 -135.81956482 74.14402771 C-129.86561685 87.89355262 -124.14619207 101.72384182 -118.56640625 115.62890625 C-116.91709032 119.73637296 -115.26620931 123.84320423 -113.61328125 127.94921875 C-113.19589188 128.98608322 -112.7785025 130.02294769 -112.34846497 131.0912323 C-109.37519761 138.45709468 -106.33650382 145.79382165 -103.26953125 153.12109375 C-102.02049964 156.11913855 -100.77228019 159.11752053 -99.5241394 162.11593628 C-98.72493675 164.0270151 -97.9207466 165.93601653 -97.11135864 167.84280396 C-95.98614806 170.49430101 -94.87825416 173.1524542 -93.7734375 175.8125 C-93.44003357 176.58443695 -93.10662964 177.3563739 -92.76312256 178.15170288 C-90.69326876 183.19491146 -90.0348274 187.10786612 -90.50390625 192.56640625 C-92.43345088 195.35352628 -93.77101412 196.30331677 -96.94140625 197.44140625 C-100.07094394 197.59406663 -101.76501329 197.08000499 -104.50390625 195.56640625 C-107.58216767 192.15604808 -109.07988556 188.10224425 -110.7421875 183.88671875 C-111.05562103 183.10656906 -111.36905457 182.32641937 -111.69198608 181.52262878 C-112.37712871 179.81541561 -113.0595487 178.10710788 -113.73959351 176.39785767 C-115.21650014 172.68581387 -116.70623662 168.97896208 -118.19520569 165.27174377 C-119.00066689 163.2660178 -119.80544835 161.26001873 -120.60960388 159.25376892 C-125.74879625 146.43990141 -130.97394346 133.66104904 -136.19140625 120.87890625 C-151.69912408 82.87884304 -151.69912408 82.87884304 -155.00390625 73.62890625 C-157.20921088 67.8220814 -160.09811353 62.97219897 -164.50390625 58.56640625 C-170.75772917 57.98981265 -173.48717661 60.12914862 -178.296875 63.8203125 C-187.49665795 71.47855736 -195.79587102 80.43238451 -203.50390625 89.56640625 C-204.97912685 91.23656672 -206.45839086 92.90316329 -207.94140625 94.56640625 C-208.62074219 95.32953125 -209.30007813 96.09265625 -210 96.87890625 C-210.49628906 97.43578125 -210.99257813 97.99265625 -211.50390625 98.56640625 C-210.0451663 101.60668157 -208.38716632 104.44070818 -206.58984375 107.29296875 C-206.00203125 108.22882813 -205.41421875 109.1646875 -204.80859375 110.12890625 C-204.17179687 111.13953125 -203.535 112.15015625 -202.87890625 113.19140625 C-197.37663371 121.95665436 -191.9170422 130.74571352 -186.50390625 139.56640625 C-181.30952398 148.02597305 -176.0821252 156.46356657 -170.81640625 164.87890625 C-169.90266235 166.34650391 -169.90266235 166.34650391 -168.97045898 167.84375 C-165.91652894 172.7437581 -162.82968258 177.61676711 -159.67578125 182.453125 C-159.06822998 183.39824951 -158.46067871 184.34337402 -157.8347168 185.31713867 C-156.69200776 187.09375698 -155.53548944 188.86160233 -154.36254883 190.6184082 C-150.99416755 195.89680084 -149.70437612 199.28733773 -150.50390625 205.56640625 C-152.43345088 208.35352628 -153.77101412 209.30331677 -156.94140625 210.44140625 C-160.07665207 210.59434507 -161.70449222 209.97735804 -164.50390625 208.56640625 C-166.29492187 206.55712891 -166.29492187 206.55712891 -167.91015625 204.10546875 C-168.50699219 203.20602539 -169.10382813 202.30658203 -169.71875 201.37988281 C-172.53957277 196.93415502 -175.29914919 192.45869052 -178.00390625 187.94140625 C-182.89645339 179.83652086 -187.84661681 171.77279046 -192.87890625 163.75390625 C-198.9626402 154.05555884 -204.98136044 144.31925059 -210.96240234 134.55737305 C-211.58453613 133.54328369 -212.20666992 132.52919434 -212.84765625 131.484375 C-213.44835937 130.5051709 -214.0490625 129.5259668 -214.66796875 128.51708984 C-217.1337653 124.55410884 -219.67732183 120.64283673 -222.23632812 116.73950195 C-223.50390625 114.56640625 -223.50390625 114.56640625 -223.50390625 112.56640625 C-228.93561058 117.15550459 -233.94099038 121.96053682 -238.75390625 127.19140625 C-239.39505371 127.88218262 -240.03620117 128.57295898 -240.69677734 129.28466797 C-242.00438986 130.6946351 -243.31023669 132.10624193 -244.61425781 133.51953125 C-246.39282832 135.44608618 -248.17760762 137.36664251 -249.96484375 139.28515625 C-251.01978155 140.42034037 -252.07448262 141.55574453 -253.12890625 142.69140625 C-253.60102539 143.19881348 -254.07314453 143.7062207 -254.55957031 144.22900391 C-255.88575309 145.66435126 -257.19507228 147.11522176 -258.50390625 148.56640625 C-259.41914063 149.51257813 -260.334375 150.45875 -261.27734375 151.43359375 C-266.19065156 158.34670404 -264.89520892 169.11047586 -265.2578125 177.34375 C-265.32352619 178.79700749 -265.38936018 180.25025954 -265.45530701 181.70350647 C-265.59280444 184.75203092 -265.72774951 187.800656 -265.86108398 190.84936523 C-265.99575021 193.92215255 -266.13438801 196.99471458 -266.27709961 200.06713867 C-266.65417749 208.20234379 -266.9975874 216.33690831 -267.27058315 224.47633171 C-267.42260457 228.84983958 -267.66500236 233.20943228 -267.95141602 237.57666016 C-268.77893205 253.25897726 -265.02981295 263.57156471 -257.31640625 277.06640625 C-256.25760124 279.01073035 -255.20432546 280.95807439 -254.15625 282.90820312 C-252.01135818 286.88767864 -249.84303428 290.85280409 -247.65478516 294.80859375 C-243.34434343 302.6358148 -239.30643561 310.59780852 -235.27062988 318.56900024 C-233.15219595 322.7455937 -231.0123732 326.91120182 -228.875 331.078125 C-228.00229747 332.78166455 -227.12974127 334.48527907 -226.25732422 336.18896484 C-225.58935822 337.49338531 -225.58935822 337.49338531 -224.90789795 338.82415771 C-220.80032968 346.846978 -216.69523585 354.87106308 -212.59179688 362.89599609 C-211.58921937 364.85654219 -210.58645793 366.81699424 -209.58349609 368.77734375 C-204.51425786 378.68594614 -199.44913202 388.59513779 -194.50390625 398.56640625 C-189.62413874 394.50085954 -185.03535369 390.23814349 -180.55883789 385.73486328 C-179.90432648 385.08049789 -179.24981506 384.42613251 -178.57546997 383.75193787 C-176.43595211 381.61172936 -174.29998749 379.46801242 -172.1640625 377.32421875 C-170.6721297 375.83041876 -169.17997439 374.33684097 -167.68760681 372.84347534 C-163.77771676 368.92978386 -159.87084031 365.0130976 -155.96459961 361.09576416 C-151.97106619 357.09196537 -147.97466816 353.09102812 -143.97851562 349.08984375 C-136.1508514 341.25148412 -128.32637026 333.40995532 -120.50390625 325.56640625 C-121.8410524 322.59275816 -123.30595609 320.51885205 -125.61621094 318.22705078 C-126.57521301 317.26826019 -126.57521301 317.26826019 -127.55358887 316.2901001 C-128.25391235 315.60010925 -128.95423584 314.91011841 -129.67578125 314.19921875 C-130.41413208 313.46378845 -131.15248291 312.72835815 -131.91320801 311.97064209 C-133.5163029 310.37515564 -135.12170407 308.7819839 -136.72912598 307.19085693 C-139.27172474 304.67376653 -141.80803954 302.1504969 -144.34277344 299.62548828 C-149.72426701 294.26686331 -155.11352513 288.91608899 -160.50390625 283.56640625 C-166.74959832 277.36787032 -172.99208864 271.16618225 -179.22619629 264.95599365 C-181.72715728 262.46801635 -184.23405893 259.98613076 -186.74121094 257.50439453 C-188.27177922 255.98109047 -189.80206788 254.45750538 -191.33203125 252.93359375 C-192.03235474 252.24360291 -192.73267822 251.55361206 -193.45422363 250.8427124 C-194.09355835 250.20351868 -194.73289307 249.56432495 -195.39160156 248.90576172 C-195.94761047 248.35419403 -196.50361938 247.80262634 -197.07647705 247.23434448 C-199.75108033 244.10909451 -200.52735337 242.22292568 -200.37890625 238.06640625 C-199.40975747 234.18981113 -198.83026389 232.75479943 -195.50390625 230.56640625 C-192.25390625 229.87890625 -192.25390625 229.87890625 -188.50390625 230.56640625 C-186.6552124 231.90126896 -186.6552124 231.90126896 -184.74511719 233.6408844 C-184.0447937 234.27748552 -183.34447021 234.91408665 -182.6229248 235.56997871 C-179.32291197 238.67907678 -176.09161943 241.84758786 -172.89453125 245.06225586 C-172.18135239 245.7752887 -171.46817352 246.48832153 -170.73338318 247.22296143 C-168.40450923 249.55252543 -166.07918563 251.88559851 -163.75390625 254.21875 C-162.1288813 255.84564235 -160.5036337 257.47231233 -158.87817383 259.09877014 C-154.62141542 263.35932832 -150.36766996 267.62288214 -146.11456299 271.88708496 C-141.76570493 276.24621199 -137.41397917 280.60247413 -133.0625 284.95898438 C-124.54017318 293.49200367 -116.02102933 302.02819313 -107.50390625 310.56640625 C-103.69781711 308.99101401 -101.29453206 306.6009765 -98.40475464 303.70103455 C-97.90455468 303.20183787 -97.40435473 302.7026412 -96.8889972 302.18831736 C-95.21531729 300.51558952 -93.54888805 298.83582142 -91.88232422 297.15600586 C-90.68346132 295.95494163 -89.48414996 294.75432488 -88.28442383 293.55412292 C-85.7027561 290.96952203 -83.1242767 288.3817961 -80.54821396 285.79160881 C-76.47778729 281.69893184 -72.40029874 277.61334029 -68.32180786 273.52870178 C-61.87481643 267.07032879 -55.43251599 260.60729967 -48.99223721 254.14223343 C-37.45076882 242.55642514 -25.90369416 230.97621075 -14.35142243 219.4011746 C-10.29502287 215.33634969 -6.24144913 211.26873319 -2.19009757 207.19887722 C0.32578445 204.67237929 2.84367372 202.14788896 5.36207581 199.62390327 C6.53284492 198.44965324 7.70274092 197.27453195 8.87171555 196.09849548 C10.46250404 194.49830616 12.05630747 192.90118215 13.65090942 191.30479431 C14.54354052 190.40864379 15.43617161 189.51249327 16.35585213 188.58918667 C18.87236552 186.21078511 19.88157536 185.64834204 23.30859375 185.19140625 C26.49609375 185.56640625 26.49609375 185.56640625 29.37109375 187.56640625 C31.55921732 190.65552187 32.21422575 192.53223325 32.08758712 196.30933201 C30.78864415 201.26595685 26.56844929 204.5554292 23.00564575 208.02561951 C22.09234115 208.94646507 21.17903656 209.86731063 20.23805606 210.8160606 C17.70569802 213.3682347 15.1490799 215.89481748 12.58778214 218.41790187 C9.82887178 221.14431348 7.09312145 223.89379286 4.35446167 226.64051819 C-1.01213458 232.01571131 -6.39961265 237.36949658 -11.79413877 242.71664237 C-18.07183551 248.94106452 -24.32730622 255.18762474 -30.58160008 261.43554724 C-41.73766322 272.57897928 -52.91183851 283.70406585 -64.09716797 294.81811523 C-74.95872864 305.61052354 -85.81044563 316.41268497 -96.64990234 327.22729492 C-97.31785855 327.89371474 -97.98581475 328.56013456 -98.67401205 329.24674892 C-101.35861148 331.92523765 -104.04316201 334.60377538 -106.72764289 337.28238293 C-118.91589865 349.44366554 -131.11102513 361.59805868 -143.30859375 373.75 C-143.92900706 374.36810731 -144.54942038 374.98621462 -145.1886341 375.62305245 C-152.93618429 383.34146485 -160.68715842 391.05641337 -168.44376755 398.76572227 C-170.60807475 400.91697532 -172.77124619 403.06936024 -174.93340302 405.22277451 C-177.87265928 408.15000866 -180.81582045 411.07328342 -183.75949097 413.99607849 C-185.05811107 415.29088242 -185.05811107 415.29088242 -186.38296592 416.611844 C-187.16722863 417.38918207 -187.95149133 418.16652014 -188.75951958 418.9674139 C-189.43921897 419.64315643 -190.11891836 420.31889896 -190.8192147 421.01511854 C-193.08067466 423.09750272 -194.22786732 423.53573526 -197.31640625 423.87890625 C-201.43148455 423.4754672 -202.73365816 422.63614062 -205.50390625 419.56640625 C-206.25030518 417.62261963 -206.25030518 417.62261963 -206.90722656 415.39550781 C-208.33027267 410.91687983 -210.18042974 406.89014415 -212.36328125 402.73828125 C-212.74002487 402.00850067 -213.11676849 401.27872009 -213.50492859 400.52682495 C-214.74877691 398.12029307 -216.00144175 395.71846342 -217.25390625 393.31640625 C-218.14535754 391.59462375 -219.03604636 389.8724463 -219.92602539 388.14990234 C-221.33075797 385.43143503 -222.7360413 382.71326499 -224.14369202 379.99630737 C-228.96635271 370.68748259 -233.73608776 361.35190417 -238.50112915 352.01348877 C-240.91418189 347.28534726 -243.33025094 342.55874761 -245.74609375 337.83203125 C-246.22361588 336.89763214 -246.701138 335.96323303 -247.19313049 335.0005188 C-251.87042567 325.84837064 -256.54937739 316.69707281 -261.23257446 307.54794312 C-262.54864169 304.97612125 -263.8635795 302.4037241 -265.1784668 299.83129883 C-269.04471702 292.27350577 -272.93008586 284.72762286 -276.890625 277.21875 C-277.55660033 275.95200728 -278.22253598 274.68524369 -278.88842773 273.41845703 C-280.08557249 271.14194347 -281.29326722 268.87224924 -282.50805664 266.60498047 C-283.28717407 265.12602295 -283.28717407 265.12602295 -284.08203125 263.6171875 C-284.5296582 262.77841064 -284.97728516 261.93963379 -285.43847656 261.07543945 C-287.17377024 256.98891033 -287.92060783 253.81651099 -286.50390625 249.56640625 C-286.30255795 246.81922679 -286.15086395 244.08916298 -286.0390625 241.33813477 C-286.00150848 240.49865799 -285.96395447 239.65918121 -285.92526245 238.79426575 C-285.80169479 236.01143962 -285.6841351 233.22839123 -285.56640625 230.4453125 C-285.48099274 228.50534647 -285.39513008 226.56540017 -285.30883789 224.62547302 C-285.08201396 219.50594247 -284.85995377 214.3862175 -284.63928223 209.26641846 C-284.28709882 201.10411559 -283.92953199 192.94205332 -283.568573 184.7801342 C-283.444012 181.94218107 -283.32256075 179.1041072 -283.20141602 176.26600647 C-283.0207117 172.08185557 -282.82585767 167.89869196 -282.61297607 163.71605301 C-282.5132001 161.74957792 -282.42054091 159.78274506 -282.32861328 157.81588745 C-282.26399902 156.75765778 -282.19938477 155.6994281 -282.1328125 154.60913086 C-282.08326416 153.73671249 -282.03371582 152.86429413 -281.98266602 151.96543884 C-281.02792112 147.18127716 -277.97502671 143.76842334 -274.75390625 140.25390625 C-273.56087891 138.95066406 -273.56087891 138.95066406 -272.34375 137.62109375 C-267.06826377 131.93337111 -261.75556006 126.28046666 -256.44140625 120.62890625 C-248.60003047 112.28163526 -240.79848846 103.8976789 -233.0378418 95.4753418 C-229.24954902 91.36692921 -225.44307928 87.27579605 -221.62890625 83.19140625 C-221.04729736 82.56854736 -220.46568848 81.94568848 -219.86645508 81.30395508 C-216.85321113 78.07823614 -213.83767063 74.85468312 -210.8203125 71.6328125 C-210.21807861 70.98884521 -209.61584473 70.34487793 -208.99536133 69.68139648 C-207.80033153 68.40453083 -206.60357428 67.12927955 -205.4050293 65.85571289 C-202.13295827 62.36652011 -199.01442636 58.79634266 -195.94140625 55.12890625 C-189.4865207 47.88831366 -179.79935412 41.44689134 -170.01171875 40.265625 C-162.93036897 40.23079869 -157.56426678 40.8810899 -152.11328125 45.6640625 C-149.84598849 47.91307064 -147.6638792 50.21471973 -145.50390625 52.56640625 C-144.50943404 53.57190365 -143.51182353 54.57438672 -142.50390625 55.56640625 C-142.24738281 55.01210938 -141.99085938 54.4578125 -141.7265625 53.88671875 C-134.04260506 39.30438419 -120.06425268 23.69870524 -104.203125 18.15625 C-96.22844677 16.41359238 -87.8485424 16.36898732 -80.5234375 20.2421875 C-73.84750281 24.61963791 -68.99668065 30.01444358 -64.50390625 36.56640625 C-63.88644531 35.75558594 -63.26898437 34.94476563 -62.6328125 34.109375 C-60.38942398 31.1705941 -58.12973653 28.24474924 -55.86328125 25.32373047 C-54.64214009 23.74510726 -53.43170117 22.1582191 -52.22265625 20.5703125 C-40.02944092 4.99745596 -20.50284908 -9.66226221 0 0 Z M-40.50390625 32.69140625 C-41.76526428 34.38715234 -43.00690777 36.09478901 -44.23681641 37.81347656 C-45.08797952 38.99100087 -45.95523192 40.15704629 -46.83740234 41.31152344 C-48.15754759 43.03983653 -49.42743151 44.79674177 -50.69140625 46.56640625 C-51.44808594 47.59765625 -52.20476562 48.62890625 -52.984375 49.69140625 C-55.71434584 55.01873261 -54.25451706 60.86464414 -53.50390625 66.56640625 C-53.33043463 68.0699385 -53.15890166 69.57369533 -52.98901367 71.07763672 C-52.50899581 75.21255644 -51.9512273 79.3325865 -51.359375 83.45288086 C-51.12094545 85.16397312 -50.89846269 86.87735788 -50.69140625 88.5925293 C-49.81586205 98.2285743 -49.81586205 98.2285743 -45.82006836 106.76904297 C-43.46615396 108.40864887 -41.14867441 109.45218574 -38.50390625 110.56640625 C-36.7315052 111.52256666 -34.9596392 112.4798629 -33.19729614 113.45443726 C-30.54193965 114.91266262 -27.85741901 116.31256719 -25.17260742 117.71560669 C-21.61236082 119.57635862 -18.06038505 121.45277499 -14.5078125 123.328125 C-13.46628525 123.87725807 -13.46628525 123.87725807 -12.40371704 124.43748474 C-4.36428555 128.68321196 3.58169237 133.09257102 11.49609375 137.56640625 C12.43146623 134.41707415 12.59483565 131.65375516 12.53369141 128.37524414 C12.51675735 127.33251343 12.4998233 126.28978271 12.4823761 125.2154541 C12.45854355 124.08474487 12.434711 122.95403564 12.41015625 121.7890625 C12.38950607 120.60638794 12.3688559 119.42371338 12.34757996 118.2052002 C12.2783874 114.34628666 12.20077354 110.4876168 12.12109375 106.62890625 C12.0812587 104.66798538 12.0812587 104.66798538 12.0406189 102.66744995 C11.87901246 94.7277845 11.87901246 94.7277845 11.71238708 86.78822327 C11.571916 80.04579614 11.46273129 73.30560392 11.42858887 66.56178284 C11.41028556 63.18134271 11.37144006 59.80132563 11.32904053 56.42111206 C11.31559786 54.91410885 11.31209274 53.40697832 11.31939697 51.89993286 C11.37170082 39.68906283 8.37299648 31.12479917 -0.06640625 22.06640625 C-0.78957031 21.27234375 -1.51273438 20.47828125 -2.2578125 19.66015625 C-5.78758181 16.36979738 -8.89074099 14.13791112 -13.81640625 14.12890625 C-25.47396482 14.61062355 -33.80282519 24.02574602 -40.50390625 32.69140625 Z " fill="#79C8AB" transform="translate(624.50390625,254.43359375)"/>
<path d="M0 0 C1.98 0 3.96 0 6 0 C6 18.48 6 36.96 6 56 C15.49892964 55.96040374 15.49892964 55.96040374 24.99780273 55.90991211 C26.17286377 55.90741455 27.3479248 55.90491699 28.55859375 55.90234375 C30.37315063 55.89448853 30.37315063 55.89448853 32.22436523 55.88647461 C35 56 35 56 36 57 C36.08757702 58.36061018 36.10696056 59.72571732 36.09765625 61.08911133 C36.09435303 61.95703812 36.0910498 62.8249649 36.08764648 63.7191925 C36.07934814 64.66392929 36.0710498 65.60866608 36.0625 66.58203125 C36.05871338 67.54775558 36.05492676 68.51347992 36.05102539 69.50846863 C36.03461728 73.65714593 36.00657153 77.8057265 35.97949219 81.9543457 C35.96141939 84.9760696 35.94931324 87.99777744 35.9375 91.01953125 C35.92920166 91.95819534 35.92090332 92.89685944 35.91235352 93.8639679 C35.90905029 94.74135117 35.90574707 95.61873444 35.90234375 96.52270508 C35.89710693 97.2924617 35.89187012 98.06221832 35.88647461 98.8553009 C36.00126126 101.02382741 36.40197973 102.91718307 37 105 C41.0527516 105.98248524 44.83861737 106.08159574 49 106 C49.33 104.35 49.66 102.7 50 101 C51.98 101 53.96 101 56 101 C56 102.65 56 104.3 56 106 C66.96204039 106 73.40420388 99.45872524 81.125 92.3125 C86.94297946 87.00841147 92.1365932 82.80005203 100.25 82.5 C105.21978485 82.76967825 108.00710151 84.29180129 111.75 87.5 C114.61116789 90.93340147 114.35360668 94.75671987 114 99 C111.56320815 104.6533571 108.46391592 108.10029023 103 111 C100.09439957 111.87592757 97.49099703 112.12631153 94.46264648 112.12939453 C93.57169785 112.13254669 92.68074921 112.13569885 91.76280212 112.13894653 C90.80853836 112.1369223 89.8542746 112.13489807 88.87109375 112.1328125 C87.88504654 112.13376923 86.89899933 112.13472595 85.8830719 112.13571167 C83.80103491 112.13639151 81.71899579 112.13455091 79.63696289 112.13037109 C76.44607806 112.1250144 73.25533362 112.13032568 70.06445312 112.13671875 C68.04166636 112.13605805 66.01887967 112.13477704 63.99609375 112.1328125 C63.03980576 112.13483673 62.08351776 112.13686096 61.09825134 112.13894653 C60.21045486 112.13579437 59.32265839 112.13264221 58.40795898 112.12939453 C57.62726547 112.12859894 56.84657196 112.12780334 56.04222107 112.12698364 C54 112 54 112 51 111 C50.67 111.33 50.34 111.66 50 112 C47.73181338 112.12617338 45.45916315 112.17580246 43.1875 112.1875 C41.94355469 112.20167969 40.69960938 112.21585938 39.41796875 112.23046875 C36.27476006 112.01852668 34.61228836 111.66475807 32 110 C32 109.34 32 108.68 32 108 C30.63875 108.99 30.63875 108.99 29.25 110 C24.14461075 112.91736529 18.71015639 112.84115618 13 112 C9.75 110 9.75 110 8 108 C7.071875 108.99 7.071875 108.99 6.125 110 C1.74091431 112.80581484 -1.92489249 112.6772384 -7 112 C-10.462615 110.67389213 -11.64814304 109.48531994 -13.8125 106.5 C-15.47674526 101.59485608 -15.69445079 97.12825197 -15 92 C-12.4257316 86.85146319 -9.45397599 83.817992 -4 82 C-1.66824086 81.90471177 0.66629974 81.87013812 3 81.875 C4.85625 81.87113281 4.85625 81.87113281 6.75 81.8671875 C10 82 10 82 13 83 C13.06058594 84.25296875 13.12117187 85.5059375 13.18359375 86.796875 C13.26802256 88.44792724 13.35266939 90.09896835 13.4375 91.75 C13.47681641 92.575 13.51613281 93.4 13.55664062 94.25 C13.59853516 95.04921875 13.64042969 95.8484375 13.68359375 96.671875 C13.72025146 97.4050293 13.75690918 98.13818359 13.79467773 98.89355469 C14.0040595 101.04164732 14.30882681 102.95352512 15 105 C18.14341993 106.57170996 21.55771451 106.23175783 25 106 C25.99 105.67 26.98 105.34 28 105 C28.33 89.82 28.66 74.64 29 59 C19.43 59 9.86 59 0 59 C0 39.53 0 20.06 0 0 Z M-8.0625 88.4375 C-10.52919658 91.69990515 -10.4872783 93.78996891 -10.37109375 97.78125 C-9.96032794 100.23719714 -9.32523673 101.89389988 -8 104 C-4.30691783 106.46205478 -1.28683122 106.57042512 3 106 C6.23613354 104.25746655 6.82395315 103.52814056 8 100 C8.068991 97.93854893 8.08467727 95.87498599 8.0625 93.8125 C8.05347656 92.72582031 8.04445313 91.63914062 8.03515625 90.51953125 C8.02355469 89.68808594 8.01195312 88.85664062 8 88 C2.46435824 86.4560455 -2.77912165 85.9575469 -8.0625 88.4375 Z M83 95 C82.53319824 95.44472656 82.06639648 95.88945313 81.58544922 96.34765625 C78.30980091 99.49026735 75.08587842 102.67020105 72 106 C72 106.33 72 106.66 72 107 C76.33320395 107.08772579 80.66617668 107.14063579 85 107.1875 C86.22074219 107.21263672 87.44148437 107.23777344 88.69921875 107.26367188 C95.51013617 107.31889553 100.8720827 107.10150716 107 104 C108.56935594 100.86128812 108.35201103 98.46144178 108 95 C105.33739184 91.77684275 103.12933838 89.31267236 98.8984375 88.69140625 C91.63809413 88.32052184 88.17904941 90.05508483 83 95 Z " fill="#ECAF6A" transform="translate(613,590)"/>
<path d="M0 0 C2.31 0 4.62 0 7 0 C9.87457568 6.87790018 12.2976571 13.7999436 14.453125 20.93359375 C14.91075226 22.43322411 14.91075226 22.43322411 15.37762451 23.96315002 C16.01496113 26.05575494 16.6501301 28.1490212 17.28320312 30.24291992 C18.25528338 33.45495785 19.23656942 36.66408486 20.21875 39.87304688 C20.83909046 41.91389577 21.45890133 43.95490573 22.078125 45.99609375 C22.51865204 47.43510292 22.51865204 47.43510292 22.96807861 48.90318298 C23.23545837 49.79163406 23.50283813 50.68008514 23.77832031 51.59545898 C24.01496399 52.37582016 24.25160767 53.15618134 24.49542236 53.96018982 C25 56 25 56 25 59 C22.69 59 20.38 59 18 59 C16.68 54.71 15.36 50.42 14 46 C6.08 45.67 -1.84 45.34 -10 45 C-10.66 47.97 -11.32 50.94 -12 54 C-12.61896629 55.68496378 -13.26117922 57.36403971 -14 59 C-14.99 59 -15.98 59 -17 59 C-15.68435696 51.58739383 -13.76094434 44.48789635 -11.5234375 37.3046875 C-11.19332672 36.23123077 -10.86321594 35.15777405 -10.52310181 34.05178833 C-9.47832322 30.6580904 -8.42678034 27.26653366 -7.375 23.875 C-6.66100842 21.56003455 -5.94746235 19.24493164 -5.234375 16.9296875 C-3.49473031 11.2848591 -1.74954251 5.64176805 0 0 Z M2 7 C0.89322792 10.29079625 -0.20992234 13.58279628 -1.3125 16.875 C-1.7755957 18.25171875 -1.7755957 18.25171875 -2.24804688 19.65625 C-3.7878166 24.25935108 -5.2967855 28.87046667 -6.73046875 33.5078125 C-6.97563232 34.30074707 -7.2207959 35.09368164 -7.47338867 35.91064453 C-8.1222007 38.12572065 -8.1222007 38.12572065 -8 41 C-1.07 41 5.86 41 13 41 C8.16382159 23.95115374 8.16382159 23.95115374 3 7 C2.67 7 2.34 7 2 7 Z " fill="#EBB06A" transform="translate(677,590)"/>
<path d="M0 0 C2.22272658 2.05174762 3.43006874 3.42919248 4.4375 6.25 C2.75 7.0625 2.75 7.0625 0.4375 7.25 C-0.67625 6.0434375 -0.67625 6.0434375 -1.8125 4.8125 C-4.81187094 2.01719375 -4.81187094 2.01719375 -8.5625 1.75 C-12.23065458 1.99915767 -14.67807112 2.87458798 -17.5625 5.25 C-20.12767331 8.67023108 -19.78879652 12.10123054 -19.5625 16.25 C-19.2325 17.24 -18.9025 18.23 -18.5625 19.25 C-16.9230573 19.98106078 -15.24718282 20.6302694 -13.5625 21.25 C-10.83057315 22.6076454 -8.16758722 24.08322386 -5.5 25.5625 C-4.79294922 25.94083984 -4.08589844 26.31917969 -3.35742188 26.70898438 C1.84681603 29.59696992 5.48473577 32.39170731 7.4375 38.25 C7.83533285 43.52128523 7.26400536 46.7665777 4.4375 51.25 C0.61697746 55.67376295 -2.57000576 57.85788007 -8.39453125 58.62109375 C-15.50988197 58.77962712 -20.09550876 57.92658287 -25.5625 53.25 C-26.57625949 52.26395147 -27.58056793 51.26774722 -28.5625 50.25 C-28.2325 49.26 -27.9025 48.27 -27.5625 47.25 C-25.04353951 48.369538 -23.16515345 49.56981552 -21 51.3125 C-17.08203484 54.42678 -13.61092019 54.58223469 -8.7890625 54.54296875 C-5.49444303 54.10946619 -3.79732784 52.62450458 -1.5625 50.25 C0.06263996 46.99972007 -0.02866369 43.76277471 -0.5625 40.25 C-3.90969838 34.17545479 -9.43915285 32.00698735 -15.45703125 28.90625 C-21.2664934 25.80787019 -25.25808634 22.65114904 -27.5625 16.25 C-28.09071909 12.02424726 -27.87865304 9.87014635 -25.9375 6.0625 C-19.3381026 -1.75257587 -9.35855918 -4.59718697 0 0 Z " fill="#ECAF69" transform="translate(570.5625,591.75)"/>
<path d="M0 0 C1.98 0 3.96 0 6 0 C6 19.47 6 38.94 6 59 C4.02 59 2.04 59 0 59 C0 39.53 0 20.06 0 0 Z " fill="#EBB06A" transform="translate(592,590)"/>
<path d="M0 0 C1.32 0.99 2.64 1.98 4 3 C4.598125 2.67 5.19625 2.34 5.8125 2 C8 1 8 1 11 1 C12.6875 2.5 12.6875 2.5 14 4 C12.63016497 7.16115776 12.0109362 7.9927092 9 10 C8.01 9.01 7.02 8.02 6 7 C5.401875 7.33 4.80375 7.66 4.1875 8 C2 9 2 9 -1 9 C-2.6875 7.5 -2.6875 7.5 -4 6 C-2.84826645 3.53199953 -1.95216435 1.95216435 0 0 Z " fill="#ECAF6A" transform="translate(609,658)"/>
</svg>
